# xmcd CD database file
#
# Track frame offsets:
#	150
#	23033
#	38088
#	50928
#	63905
#	75757
#	89464
#	108865
#	125298
#	168625
#	188555
#	200792
#	214291
#	241623
#
# Disc length: 3481 seconds
#
# Revision: 0
# Processed by: cddbd v1.5.2PL0 Copyright (c) Steve Scherf et al.
# Submitted via: CDex 1.70beta2
#
DISCID=b50d970e
DTITLE=Various Artist - A Great Jazzy Christmas
DYEAR=2010
DGENRE=Jazz
TTITLE0=Silent Night, Holy Night
TTITLE1=Jingle Bells (Alternate Version)
TTITLE2=Sleigh Ride
TTITLE3=Santa Claus Is Coming to Town
TTITLE4=Let It Snow! Let It Snow! Let It Snow!
TTITLE5=Winter Weather (78RPM Version)
TTITLE6=Oh, Christmas Tree
TTITLE7=The Christmas Song
TTITLE8=Have Yourself a Merry Little Christmas
TTITLE9=Christmas Wish
TTITLE10=Blue Xmas (To Whom It May Concern)
TTITLE11=God Bless the Child (78RPM Version)
TTITLE12=White Christmas
TTITLE13=Jesu, Joy of Man's Desiring
EXTD=YEAR: 2010
EXTT0=
EXTT1=
EXTT2=
EXTT3=
EXTT4=
EXTT5=
EXTT6=
EXTT7=
EXTT8=
EXTT9=
EXTT10=
EXTT11=
EXTT12=
EXTT13=
PLAYORDER=
